<svg width="90" height="22" viewBox="0 0 90 22" fill="none" xmlns="http://www.w3.org/2000/svg">
<path d="M0.663 11.234C1.49033 9.52267 2.49333 8.038 3.672 6.78C4.85067 5.51067 6.11433 4.451 7.463 3.601C8.81167 2.751 10.1943 2.105 11.611 1.663C13.039 1.20967 14.4047 0.937666 15.708 0.846999C16.0593 0.846999 16.337 0.926332 16.541 1.085C16.745 1.23233 16.8867 1.408 16.966 1.612C17.0567 1.80467 17.085 1.99733 17.051 2.19C17.0283 2.38267 16.966 2.53 16.864 2.632C16.762 2.77933 16.575 3.057 16.303 3.465C16.031 3.873 15.7023 4.37167 15.317 4.961C14.943 5.55033 14.5293 6.21333 14.076 6.95C13.6227 7.67533 13.158 8.43467 12.682 9.228C12.2173 10.0213 11.7583 10.8317 11.305 11.659C10.863 12.475 10.455 13.2683 10.081 14.039C9.71833 14.7983 9.40667 15.518 9.146 16.198C8.88533 16.8667 8.71533 17.456 8.636 17.966C8.54533 18.5213 8.57933 18.901 8.738 19.105C8.772 19.1277 8.81733 19.1503 8.874 19.173C8.93067 19.207 8.98167 19.224 9.027 19.224C9.17433 19.224 9.333 19.1787 9.503 19.088C9.673 19.0087 9.82033 18.9407 9.945 18.884C10.1717 18.7593 10.3417 18.6913 10.455 18.68C10.5797 18.6687 10.6307 18.7933 10.608 19.054C10.608 19.394 10.5457 19.7057 10.421 19.989C10.3077 20.2837 10.149 20.499 9.945 20.635C9.49167 20.941 9.06667 21.094 8.67 21.094C8.45467 21.094 8.25067 21.0543 8.058 20.975C7.86533 20.8957 7.66133 20.7767 7.446 20.618C7.02667 20.3007 6.766 19.8587 6.664 19.292C6.562 18.7367 6.57333 18.0963 6.698 17.371C6.81133 16.691 7.004 15.9487 7.276 15.144C7.55933 14.3393 7.89367 13.512 8.279 12.662C8.66433 11.812 9.08367 10.9563 9.537 10.095C10.0017 9.22233 10.4663 8.38367 10.931 7.579C11.407 6.763 11.866 5.998 12.308 5.284C12.7613 4.55867 13.1693 3.91833 13.532 3.363V3.38L13.719 3.091C13.6737 3.11367 13.6227 3.125 13.566 3.125C12.7047 3.295 11.849 3.584 10.999 3.992C10.1603 4.4 9.35 4.88733 8.568 5.454C7.79733 6.02067 7.06633 6.644 6.375 7.324C5.695 7.99267 5.083 8.67833 4.539 9.381C4.00633 10.0723 3.54733 10.758 3.162 11.438C2.788 12.1067 2.52167 12.7243 2.363 13.291C2.06833 13.2797 1.79067 13.223 1.53 13.121C1.26933 13.0077 1.04833 12.8603 0.867 12.679C0.697 12.4977 0.583667 12.288 0.527 12.05C0.481667 11.8007 0.527 11.5287 0.663 11.234ZM20.421 14.668C20.2057 14.9627 19.9223 15.3197 19.571 15.739C19.2197 16.1583 18.8343 16.5663 18.415 16.963C17.9957 17.3597 17.565 17.6997 17.123 17.983C16.6923 18.255 16.2843 18.391 15.899 18.391C15.661 18.391 15.4343 18.3457 15.219 18.255C15.0037 18.1757 14.828 18.0453 14.692 17.864C14.556 17.6827 14.4597 17.4503 14.403 17.167C14.3577 16.8723 14.3747 16.5267 14.454 16.13C14.5333 15.79 14.6297 15.4557 14.743 15.127C14.8677 14.7983 15.015 14.4527 15.185 14.09C15.3663 13.7273 15.5703 13.3363 15.797 12.917C16.0237 12.4863 16.2843 12.0047 16.579 11.472C16.715 11.2453 16.8227 11.0357 16.902 10.843C16.9927 10.639 17.0493 10.4747 17.072 10.35L16.256 11.047C15.78 11.4437 15.338 11.8403 14.93 12.237C14.5333 12.6337 14.1253 13.07 13.706 13.546C13.3207 14.2487 12.975 14.9683 12.669 15.705C12.363 16.4303 12.1137 17.167 11.921 17.915C11.8757 18.0397 11.7567 18.0963 11.564 18.085C11.3713 18.0737 11.1673 18.0227 10.952 17.932C10.748 17.83 10.5667 17.7053 10.408 17.558C10.238 17.4107 10.1587 17.2633 10.17 17.116C10.272 16.606 10.4023 16.113 10.561 15.637C10.731 15.1497 10.918 14.6737 11.122 14.209C11.326 13.733 11.5413 13.2683 11.768 12.815C12.006 12.3503 12.244 11.8857 12.482 11.421C12.754 10.877 13.0203 10.35 13.281 9.84C13.5417 9.31867 13.774 8.82 13.978 8.344C14.114 8.276 14.2783 8.276 14.471 8.344C14.675 8.40067 14.8677 8.497 15.049 8.633C15.2303 8.769 15.389 8.939 15.525 9.143C15.661 9.33567 15.746 9.53967 15.78 9.755C16.2673 9.347 16.7603 9.00133 17.259 8.718C17.7577 8.43467 18.2563 8.276 18.755 8.242C18.9137 8.242 19.0667 8.31567 19.214 8.463C19.3727 8.599 19.5087 8.769 19.622 8.973C19.7353 9.177 19.809 9.398 19.843 9.636C19.877 9.874 19.8543 10.0837 19.775 10.265C19.4803 10.843 19.1913 11.387 18.908 11.897C18.6247 12.3957 18.381 12.8263 18.177 13.189C17.9957 13.5063 17.8257 13.801 17.667 14.073C17.5197 14.3337 17.3837 14.5943 17.259 14.855C17.1457 15.1157 17.038 15.382 16.936 15.654C16.8453 15.926 16.7603 16.2207 16.681 16.538C16.6923 16.5153 16.732 16.4813 16.8 16.436H16.783C17.123 16.266 17.5423 15.977 18.041 15.569C18.5397 15.161 19.061 14.6057 19.605 13.903C19.7523 13.7217 19.8883 13.546 20.013 13.376C20.149 13.206 20.2793 13.036 20.404 12.866L20.727 12.373C20.7723 12.3163 20.8573 12.305 20.982 12.339C21.1067 12.3617 21.22 12.4127 21.322 12.492C21.4353 12.5713 21.5203 12.6677 21.577 12.781C21.645 12.883 21.645 12.9737 21.577 13.053L21.594 13.019L20.438 14.651L20.421 14.668ZM18.4276 15.841C18.5183 15.365 18.6996 14.9003 18.9716 14.447C19.2436 13.9937 19.5666 13.631 19.9406 13.359L20.4166 12.747C20.8019 12.203 21.1929 11.6647 21.5896 11.132C21.9976 10.5993 22.4169 10.0837 22.8476 9.585C22.9383 9.49433 23.0176 9.40367 23.0856 9.313C23.1536 9.22233 23.2273 9.13167 23.3066 9.041C23.5446 8.735 23.8166 8.40633 24.1226 8.055C24.4399 7.70367 24.8819 7.29567 25.4486 6.831C25.6073 6.92167 25.7999 7.052 26.0266 7.222C26.2533 7.38067 26.4403 7.562 26.5876 7.766C26.7463 7.95867 26.8369 8.16267 26.8596 8.378C26.8823 8.59333 26.7746 8.786 26.5366 8.956L26.5876 8.939C26.3609 9.13167 26.1966 9.28467 26.0946 9.398C26.0039 9.5 25.9019 9.62467 25.7886 9.772L25.5166 10.112C25.2219 10.5087 24.9953 10.928 24.8366 11.37C24.6893 11.812 24.5759 12.2483 24.4966 12.679C24.4513 12.917 24.4173 13.1607 24.3946 13.41C24.3719 13.648 24.3493 13.8917 24.3266 14.141L24.2076 15.161C24.1396 15.671 23.9979 16.1413 23.7826 16.572C23.5673 16.9913 23.2953 17.3483 22.9666 17.643C22.6493 17.9377 22.2866 18.1587 21.8786 18.306C21.4819 18.4647 21.0626 18.5327 20.6206 18.51C20.1786 18.476 19.8046 18.3797 19.4986 18.221C19.1926 18.0623 18.9546 17.864 18.7846 17.626C18.6033 17.388 18.4843 17.116 18.4276 16.81C18.3709 16.504 18.3709 16.181 18.4276 15.841ZM22.2186 12.696C22.2299 12.6053 22.2469 12.5147 22.2696 12.424C22.2923 12.322 22.3149 12.2257 22.3376 12.135L21.6236 13.087L21.6066 13.104C21.6293 13.1947 21.6519 13.3533 21.6746 13.58C21.6973 13.7953 21.7029 14.0277 21.6916 14.277C21.6803 14.515 21.6463 14.7473 21.5896 14.974C21.5443 15.1893 21.4649 15.348 21.3516 15.45C21.2836 15.2687 21.1703 15.1667 21.0116 15.144C20.8529 15.11 20.6886 15.1327 20.5186 15.212C20.3486 15.2913 20.1956 15.4047 20.0596 15.552C19.9236 15.688 19.8386 15.8297 19.8046 15.977C19.7933 16.0337 19.7933 16.1073 19.8046 16.198C19.8159 16.2773 19.8329 16.3567 19.8556 16.436C19.9349 16.6173 20.0539 16.7533 20.2126 16.844C20.3713 16.9233 20.5299 16.9743 20.6886 16.997C20.8586 17.0197 21.0116 16.9913 21.1476 16.912C21.2836 16.8327 21.4026 16.725 21.5046 16.589C21.6179 16.453 21.7086 16.2943 21.7766 16.113C21.8559 15.9317 21.9126 15.739 21.9466 15.535C21.9919 15.127 22.0259 14.6963 22.0486 14.243C22.0713 14.005 22.0883 13.7557 22.0996 13.495C22.1223 13.2343 22.1619 12.968 22.2186 12.696ZM27.1077 9.024C26.9037 9.092 26.7337 9.092 26.5977 9.024C26.473 8.956 26.3937 8.85967 26.3597 8.735C26.3257 8.599 26.3427 8.45167 26.4107 8.293C26.49 8.13433 26.626 7.99267 26.8187 7.868C27.2834 7.57333 27.7367 7.307 28.1787 7.069C28.632 6.831 29.0854 6.61567 29.5387 6.423C30.3887 4.94967 31.029 3.686 31.4597 2.632C31.641 2.54133 31.8507 2.547 32.0887 2.649C32.338 2.73967 32.559 2.887 32.7517 3.091C32.9557 3.295 33.1087 3.533 33.2107 3.805C33.3127 4.06567 33.3127 4.32067 33.2107 4.57L32.7177 5.437C33.477 5.301 34.225 5.233 34.9617 5.233C35.075 5.233 35.2224 5.23867 35.4037 5.25C35.585 5.25 35.7324 5.25567 35.8457 5.267C35.8684 5.437 35.8457 5.624 35.7777 5.828C35.721 6.02067 35.636 6.20767 35.5227 6.389C35.4094 6.559 35.279 6.70633 35.1317 6.831C34.9957 6.95567 34.8597 7.018 34.7237 7.018C34.6104 7.00667 34.4914 7.001 34.3667 7.001C34.242 6.98967 34.1174 6.984 33.9927 6.984C33.6074 6.984 33.2164 7.00667 32.8197 7.052C32.423 7.09733 32.0207 7.16533 31.6127 7.256C31.454 7.528 31.2897 7.79433 31.1197 8.055C30.961 8.31567 30.8024 8.565 30.6437 8.803L30.5077 9.024C30.3717 9.23933 30.1847 9.534 29.9467 9.908C29.7087 10.282 29.448 10.7013 29.1647 11.166C28.8927 11.6193 28.6094 12.101 28.3147 12.611C28.02 13.1097 27.748 13.597 27.4987 14.073C27.2494 14.5377 27.0397 14.9683 26.8697 15.365C26.6997 15.7617 26.5977 16.079 26.5637 16.317C26.541 16.351 26.5297 16.3793 26.5297 16.402C26.5297 16.4247 26.524 16.4417 26.5127 16.453H26.6317C26.9604 16.3397 27.2834 16.1583 27.6007 15.909C27.918 15.6483 28.224 15.3593 28.5187 15.042C28.8134 14.7133 29.0967 14.3677 29.3687 14.005C29.6407 13.631 29.9014 13.2683 30.1507 12.917H30.1337C30.2017 12.815 30.2754 12.7187 30.3547 12.628C30.434 12.526 30.5077 12.4297 30.5757 12.339C30.621 12.271 30.7004 12.254 30.8137 12.288C30.927 12.322 31.0347 12.3787 31.1367 12.458C31.25 12.5373 31.335 12.6337 31.3917 12.747C31.4597 12.849 31.471 12.9397 31.4257 13.019L30.8647 13.784C30.4 14.43 29.8957 15.0873 29.3517 15.756C28.819 16.4133 28.2524 16.9913 27.6517 17.49C27.5497 17.5807 27.4194 17.6827 27.2607 17.796C27.102 17.898 26.9264 17.9943 26.7337 18.085C26.541 18.1757 26.337 18.2493 26.1217 18.306C25.9064 18.374 25.691 18.408 25.4757 18.408C25.2264 18.3967 25.0224 18.3343 24.8637 18.221C24.705 18.1077 24.5804 17.9603 24.4897 17.779C24.4104 17.5863 24.365 17.371 24.3537 17.133C24.331 16.8837 24.3424 16.6117 24.3877 16.317C24.4104 16.1923 24.4387 16.062 24.4727 15.926C24.5067 15.7787 24.5464 15.6483 24.5917 15.535C24.773 14.957 24.994 14.379 25.2547 13.801C25.5154 13.223 25.7987 12.6507 26.1047 12.084C26.4107 11.5173 26.728 10.9563 27.0567 10.401C27.3967 9.84567 27.7367 9.30167 28.0767 8.769L28.2977 8.429L27.1587 9.007L27.1077 9.024ZM37.9461 11.149C37.9348 11.217 37.8895 11.2737 37.8101 11.319C37.7421 11.353 37.6571 11.3813 37.5551 11.404C37.4531 11.4153 37.3455 11.421 37.2321 11.421C37.1301 11.421 37.0395 11.404 36.9601 11.37C37.1188 11.472 37.2661 11.591 37.4021 11.727C37.5381 11.863 37.6515 12.016 37.7421 12.186C37.8328 12.3447 37.8895 12.509 37.9121 12.679C37.9461 12.849 37.9291 13.0133 37.8611 13.172C37.8158 13.2513 37.7648 13.342 37.7081 13.444C37.6515 13.5347 37.5948 13.631 37.5381 13.733C37.4135 13.9483 37.2831 14.1807 37.1471 14.43C37.0225 14.6793 36.9035 14.923 36.7901 15.161C36.6768 15.399 36.5748 15.6257 36.4841 15.841C36.4048 16.045 36.3538 16.2207 36.3311 16.368C36.3311 16.3907 36.3198 16.4077 36.2971 16.419C36.2858 16.4303 36.2745 16.4417 36.2631 16.453H36.3821C36.7221 16.3397 37.0508 16.1527 37.3681 15.892C37.6855 15.6313 37.9915 15.3367 38.2861 15.008C38.5921 14.668 38.8811 14.311 39.1531 13.937C39.4365 13.5517 39.7028 13.1833 39.9521 12.832C40.0428 12.7413 40.1108 12.662 40.1561 12.594C40.2015 12.526 40.2468 12.4523 40.2921 12.373C40.3375 12.3163 40.4225 12.305 40.5471 12.339C40.6718 12.3617 40.7908 12.4127 40.9041 12.492C41.0175 12.5713 41.1081 12.6677 41.1761 12.781C41.2441 12.883 41.2441 12.9737 41.1761 13.053L40.6831 13.733V13.75C40.1958 14.4187 39.6858 15.0817 39.1531 15.739C38.6318 16.385 38.0481 16.9687 37.4021 17.49C37.3001 17.5807 37.1698 17.6827 37.0111 17.796C36.8638 17.898 36.6938 17.9943 36.5011 18.085C36.3198 18.187 36.1215 18.2663 35.9061 18.323C35.6908 18.391 35.4698 18.4193 35.2431 18.408C34.6991 18.3627 34.3138 18.17 34.0871 17.83C33.8718 17.49 33.7925 17.065 33.8491 16.555C33.3391 17.031 32.8235 17.4447 32.3021 17.796C31.7808 18.136 31.2821 18.3117 30.8061 18.323C30.3755 18.2777 30.0298 18.1587 29.7691 17.966C29.5198 17.762 29.3328 17.524 29.2081 17.252C29.0835 16.98 29.0098 16.691 28.9871 16.385C28.9758 16.0677 28.9871 15.773 29.0211 15.501C29.0665 15.2517 29.1175 15.0477 29.1741 14.889C29.2875 14.4697 29.4745 14.0107 29.7351 13.512C29.9958 13.0133 30.3075 12.5147 30.6701 12.016C31.0328 11.5173 31.4295 11.0357 31.8601 10.571C32.3021 10.1063 32.7668 9.69267 33.2541 9.33C33.7415 8.96733 34.2345 8.67833 34.7331 8.463C35.2431 8.24767 35.7475 8.14 36.2461 8.14C36.3935 8.14 36.5351 8.15133 36.6711 8.174C36.8071 8.19667 36.9545 8.23067 37.1131 8.276C37.3851 8.36667 37.5891 8.514 37.7251 8.718C37.8725 8.91067 37.9688 9.143 38.0141 9.415C38.0708 9.67567 38.0878 9.959 38.0651 10.265C38.0538 10.5597 38.0141 10.8543 37.9461 11.149ZM35.9571 11.149C36.0705 11.0923 36.2008 11.081 36.3481 11.115C36.5068 11.149 36.6655 11.2113 36.8241 11.302C36.7675 11.2453 36.7505 11.183 36.7731 11.115C36.7845 11.081 36.7845 11.0413 36.7731 10.996C36.7731 10.9507 36.7788 10.9053 36.7901 10.86C36.8015 10.7467 36.8071 10.6277 36.8071 10.503C36.8071 10.3783 36.7901 10.265 36.7561 10.163C36.7221 10.0497 36.6655 9.959 36.5861 9.891C36.5068 9.823 36.3991 9.78333 36.2631 9.772C35.8438 9.76067 35.4131 9.91367 34.9711 10.231C34.5291 10.537 34.1041 10.928 33.6961 11.404C33.2881 11.88 32.9141 12.39 32.5741 12.934C32.2455 13.478 31.9848 13.971 31.7921 14.413C31.7355 14.5377 31.6788 14.6963 31.6221 14.889C31.5655 15.0703 31.5258 15.2517 31.5031 15.433C31.4805 15.5577 31.4691 15.6767 31.4691 15.79C31.4691 15.9033 31.4918 15.9997 31.5371 16.079C31.5938 16.1583 31.6731 16.2093 31.7751 16.232C31.8771 16.2547 32.0188 16.2433 32.2001 16.198C32.3701 16.1527 32.5855 16.0223 32.8461 15.807C33.1068 15.5917 33.3788 15.3423 33.6621 15.059C33.9568 14.7643 34.2401 14.4527 34.5121 14.124C34.7955 13.7953 35.0335 13.5007 35.2261 13.24C35.3961 12.9 35.5491 12.5713 35.6851 12.254C35.8325 11.9253 35.9345 11.6477 35.9911 11.421L35.9571 11.149ZM48.6768 14.668C48.4615 14.9627 48.1782 15.3197 47.8268 15.739C47.4755 16.1583 47.0902 16.5663 46.6708 16.963C46.2515 17.3597 45.8208 17.6997 45.3788 17.983C44.9482 18.255 44.5402 18.391 44.1548 18.391C43.9168 18.391 43.6902 18.3457 43.4748 18.255C43.2595 18.1757 43.0838 18.0453 42.9478 17.864C42.8118 17.6827 42.7155 17.4503 42.6588 17.167C42.6135 16.8723 42.6305 16.5267 42.7098 16.13C42.7892 15.79 42.8855 15.4557 42.9988 15.127C43.1235 14.7983 43.2708 14.4527 43.4408 14.09C43.6222 13.7273 43.8262 13.3363 44.0528 12.917C44.2795 12.4863 44.5402 12.0047 44.8348 11.472C44.9708 11.2453 45.0785 11.0357 45.1578 10.843C45.2485 10.639 45.3052 10.4747 45.3278 10.35L44.5118 11.047C44.0358 11.4437 43.5938 11.8403 43.1858 12.237C42.7892 12.6337 42.3812 13.07 41.9618 13.546C41.5765 14.2487 41.2308 14.9683 40.9248 15.705C40.6188 16.4303 40.3695 17.167 40.1768 17.915C40.1315 18.0397 40.0125 18.0963 39.8198 18.085C39.6272 18.0737 39.4232 18.0227 39.2078 17.932C39.0038 17.83 38.8225 17.7053 38.6638 17.558C38.4938 17.4107 38.4145 17.2633 38.4258 17.116C38.5278 16.606 38.6582 16.113 38.8168 15.637C38.9868 15.1497 39.1738 14.6737 39.3778 14.209C39.5818 13.733 39.7972 13.2683 40.0238 12.815C40.2618 12.3503 40.4998 11.8857 40.7378 11.421C41.0098 10.877 41.2762 10.35 41.5368 9.84C41.7975 9.31867 42.0298 8.82 42.2338 8.344C42.3698 8.276 42.5342 8.276 42.7268 8.344C42.9308 8.40067 43.1235 8.497 43.3048 8.633C43.4862 8.769 43.6448 8.939 43.7808 9.143C43.9168 9.33567 44.0018 9.53967 44.0358 9.755C44.5232 9.347 45.0162 9.00133 45.5148 8.718C46.0135 8.43467 46.5122 8.276 47.0108 8.242C47.1695 8.242 47.3225 8.31567 47.4698 8.463C47.6285 8.599 47.7645 8.769 47.8778 8.973C47.9912 9.177 48.0648 9.398 48.0988 9.636C48.1328 9.874 48.1102 10.0837 48.0308 10.265C47.7362 10.843 47.4472 11.387 47.1638 11.897C46.8805 12.3957 46.6368 12.8263 46.4328 13.189C46.2515 13.5063 46.0815 13.801 45.9228 14.073C45.7755 14.3337 45.6395 14.5943 45.5148 14.855C45.4015 15.1157 45.2938 15.382 45.1918 15.654C45.1012 15.926 45.0162 16.2207 44.9368 16.538C44.9482 16.5153 44.9878 16.4813 45.0558 16.436H45.0388C45.3788 16.266 45.7982 15.977 46.2968 15.569C46.7955 15.161 47.3168 14.6057 47.8608 13.903C48.0082 13.7217 48.1442 13.546 48.2688 13.376C48.4048 13.206 48.5352 13.036 48.6598 12.866L48.9828 12.373C49.0282 12.3163 49.1132 12.305 49.2378 12.339C49.3625 12.3617 49.4758 12.4127 49.5778 12.492C49.6912 12.5713 49.7762 12.6677 49.8328 12.781C49.9008 12.883 49.9008 12.9737 49.8328 13.053L49.8498 13.019L48.6938 14.651L48.6768 14.668ZM50.1175 9.024C49.9135 9.092 49.7435 9.092 49.6075 9.024C49.4828 8.956 49.4035 8.85967 49.3695 8.735C49.3355 8.599 49.3525 8.45167 49.4205 8.293C49.4998 8.13433 49.6358 7.99267 49.8285 7.868C50.2931 7.57333 50.7465 7.307 51.1885 7.069C51.6418 6.831 52.0951 6.61567 52.5485 6.423C53.3985 4.94967 54.0388 3.686 54.4695 2.632C54.6508 2.54133 54.8605 2.547 55.0985 2.649C55.3478 2.73967 55.5688 2.887 55.7615 3.091C55.9655 3.295 56.1185 3.533 56.2205 3.805C56.3225 4.06567 56.3225 4.32067 56.2205 4.57L55.7275 5.437C56.4868 5.301 57.2348 5.233 57.9715 5.233C58.0848 5.233 58.2321 5.23867 58.4135 5.25C58.5948 5.25 58.7421 5.25567 58.8555 5.267C58.8781 5.437 58.8555 5.624 58.7875 5.828C58.7308 6.02067 58.6458 6.20767 58.5325 6.389C58.4191 6.559 58.2888 6.70633 58.1415 6.831C58.0055 6.95567 57.8695 7.018 57.7335 7.018C57.6201 7.00667 57.5011 7.001 57.3765 7.001C57.2518 6.98967 57.1271 6.984 57.0025 6.984C56.6171 6.984 56.2261 7.00667 55.8295 7.052C55.4328 7.09733 55.0305 7.16533 54.6225 7.256C54.4638 7.528 54.2995 7.79433 54.1295 8.055C53.9708 8.31567 53.8121 8.565 53.6535 8.803L53.5175 9.024C53.3815 9.23933 53.1945 9.534 52.9565 9.908C52.7185 10.282 52.4578 10.7013 52.1745 11.166C51.9025 11.6193 51.6191 12.101 51.3245 12.611C51.0298 13.1097 50.7578 13.597 50.5085 14.073C50.2591 14.5377 50.0495 14.9683 49.8795 15.365C49.7095 15.7617 49.6075 16.079 49.5735 16.317C49.5508 16.351 49.5395 16.3793 49.5395 16.402C49.5395 16.4247 49.5338 16.4417 49.5225 16.453H49.6415C49.9701 16.3397 50.2931 16.1583 50.6105 15.909C50.9278 15.6483 51.2338 15.3593 51.5285 15.042C51.8231 14.7133 52.1065 14.3677 52.3785 14.005C52.6505 13.631 52.9111 13.2683 53.1605 12.917H53.1435C53.2115 12.815 53.2851 12.7187 53.3645 12.628C53.4438 12.526 53.5175 12.4297 53.5855 12.339C53.6308 12.271 53.7101 12.254 53.8235 12.288C53.9368 12.322 54.0445 12.3787 54.1465 12.458C54.2598 12.5373 54.3448 12.6337 54.4015 12.747C54.4695 12.849 54.4808 12.9397 54.4355 13.019L53.8745 13.784C53.4098 14.43 52.9055 15.0873 52.3615 15.756C51.8288 16.4133 51.2621 16.9913 50.6615 17.49C50.5595 17.5807 50.4291 17.6827 50.2705 17.796C50.1118 17.898 49.9361 17.9943 49.7435 18.085C49.5508 18.1757 49.3468 18.2493 49.1315 18.306C48.9161 18.374 48.7008 18.408 48.4855 18.408C48.2361 18.3967 48.0321 18.3343 47.8735 18.221C47.7148 18.1077 47.5901 17.9603 47.4995 17.779C47.4201 17.5863 47.3748 17.371 47.3635 17.133C47.3408 16.8837 47.3521 16.6117 47.3975 16.317C47.4201 16.1923 47.4485 16.062 47.4825 15.926C47.5165 15.7787 47.5561 15.6483 47.6015 15.535C47.7828 14.957 48.0038 14.379 48.2645 13.801C48.5251 13.223 48.8085 12.6507 49.1145 12.084C49.4205 11.5173 49.7378 10.9563 50.0665 10.401C50.4065 9.84567 50.7465 9.30167 51.0865 8.769L51.3075 8.429L50.1685 9.007L50.1175 9.024ZM60.9559 11.149C60.9446 11.217 60.8992 11.2737 60.8199 11.319C60.7519 11.353 60.6669 11.3813 60.5649 11.404C60.4629 11.4153 60.3552 11.421 60.2419 11.421C60.1399 11.421 60.0492 11.404 59.9699 11.37C60.1286 11.472 60.2759 11.591 60.4119 11.727C60.5479 11.863 60.6612 12.016 60.7519 12.186C60.8426 12.3447 60.8992 12.509 60.9219 12.679C60.9559 12.849 60.9389 13.0133 60.8709 13.172C60.8256 13.2513 60.7746 13.342 60.7179 13.444C60.6612 13.5347 60.6046 13.631 60.5479 13.733C60.4232 13.9483 60.2929 14.1807 60.1569 14.43C60.0322 14.6793 59.9132 14.923 59.7999 15.161C59.6866 15.399 59.5846 15.6257 59.4939 15.841C59.4146 16.045 59.3636 16.2207 59.3409 16.368C59.3409 16.3907 59.3296 16.4077 59.3069 16.419C59.2956 16.4303 59.2842 16.4417 59.2729 16.453H59.3919C59.7319 16.3397 60.0606 16.1527 60.3779 15.892C60.6952 15.6313 61.0012 15.3367 61.2959 15.008C61.6019 14.668 61.8909 14.311 62.1629 13.937C62.4462 13.5517 62.7126 13.1833 62.9619 12.832C63.0526 12.7413 63.1206 12.662 63.1659 12.594C63.2112 12.526 63.2566 12.4523 63.3019 12.373C63.3472 12.3163 63.4322 12.305 63.5569 12.339C63.6816 12.3617 63.8006 12.4127 63.9139 12.492C64.0272 12.5713 64.1179 12.6677 64.1859 12.781C64.2539 12.883 64.2539 12.9737 64.1859 13.053L63.6929 13.733V13.75C63.2056 14.4187 62.6956 15.0817 62.1629 15.739C61.6416 16.385 61.0579 16.9687 60.4119 17.49C60.3099 17.5807 60.1796 17.6827 60.0209 17.796C59.8736 17.898 59.7036 17.9943 59.5109 18.085C59.3296 18.187 59.1312 18.2663 58.9159 18.323C58.7006 18.391 58.4796 18.4193 58.2529 18.408C57.7089 18.3627 57.3236 18.17 57.0969 17.83C56.8816 17.49 56.8022 17.065 56.8589 16.555C56.3489 17.031 55.8332 17.4447 55.3119 17.796C54.7906 18.136 54.2919 18.3117 53.8159 18.323C53.3852 18.2777 53.0396 18.1587 52.7789 17.966C52.5296 17.762 52.3426 17.524 52.2179 17.252C52.0932 16.98 52.0196 16.691 51.9969 16.385C51.9856 16.0677 51.9969 15.773 52.0309 15.501C52.0762 15.2517 52.1272 15.0477 52.1839 14.889C52.2972 14.4697 52.4842 14.0107 52.7449 13.512C53.0056 13.0133 53.3172 12.5147 53.6799 12.016C54.0426 11.5173 54.4392 11.0357 54.8699 10.571C55.3119 10.1063 55.7766 9.69267 56.2639 9.33C56.7512 8.96733 57.2442 8.67833 57.7429 8.463C58.2529 8.24767 58.7572 8.14 59.2559 8.14C59.4032 8.14 59.5449 8.15133 59.6809 8.174C59.8169 8.19667 59.9642 8.23067 60.1229 8.276C60.3949 8.36667 60.5989 8.514 60.7349 8.718C60.8822 8.91067 60.9786 9.143 61.0239 9.415C61.0806 9.67567 61.0976 9.959 61.0749 10.265C61.0636 10.5597 61.0239 10.8543 60.9559 11.149ZM58.9669 11.149C59.0802 11.0923 59.2106 11.081 59.3579 11.115C59.5166 11.149 59.6752 11.2113 59.8339 11.302C59.7772 11.2453 59.7602 11.183 59.7829 11.115C59.7942 11.081 59.7942 11.0413 59.7829 10.996C59.7829 10.9507 59.7886 10.9053 59.7999 10.86C59.8112 10.7467 59.8169 10.6277 59.8169 10.503C59.8169 10.3783 59.7999 10.265 59.7659 10.163C59.7319 10.0497 59.6752 9.959 59.5959 9.891C59.5166 9.823 59.4089 9.78333 59.2729 9.772C58.8536 9.76067 58.4229 9.91367 57.9809 10.231C57.5389 10.537 57.1139 10.928 56.7059 11.404C56.2979 11.88 55.9239 12.39 55.5839 12.934C55.2552 13.478 54.9946 13.971 54.8019 14.413C54.7452 14.5377 54.6886 14.6963 54.6319 14.889C54.5752 15.0703 54.5356 15.2517 54.5129 15.433C54.4902 15.5577 54.4789 15.6767 54.4789 15.79C54.4789 15.9033 54.5016 15.9997 54.5469 16.079C54.6036 16.1583 54.6829 16.2093 54.7849 16.232C54.8869 16.2547 55.0286 16.2433 55.2099 16.198C55.3799 16.1527 55.5952 16.0223 55.8559 15.807C56.1166 15.5917 56.3886 15.3423 56.6719 15.059C56.9666 14.7643 57.2499 14.4527 57.5219 14.124C57.8052 13.7953 58.0432 13.5007 58.2359 13.24C58.4059 12.9 58.5589 12.5713 58.6949 12.254C58.8422 11.9253 58.9442 11.6477 59.0009 11.421L58.9669 11.149ZM71.6866 14.668C71.4713 14.9627 71.1879 15.3197 70.8366 15.739C70.4853 16.1583 70.0999 16.5663 69.6806 16.963C69.2613 17.3597 68.8306 17.6997 68.3886 17.983C67.9579 18.255 67.5499 18.391 67.1646 18.391C66.9266 18.391 66.6999 18.3457 66.4846 18.255C66.2693 18.1757 66.0936 18.0453 65.9576 17.864C65.8216 17.6827 65.7253 17.4503 65.6686 17.167C65.6233 16.8723 65.6403 16.5267 65.7196 16.13C65.7989 15.79 65.8953 15.4557 66.0086 15.127C66.1333 14.7983 66.2806 14.4527 66.4506 14.09C66.6319 13.7273 66.8359 13.3363 67.0626 12.917C67.2893 12.4863 67.5499 12.0047 67.8446 11.472C67.9806 11.2453 68.0883 11.0357 68.1676 10.843C68.2583 10.639 68.3149 10.4747 68.3376 10.35L67.5216 11.047C67.0456 11.4437 66.6036 11.8403 66.1956 12.237C65.7989 12.6337 65.3909 13.07 64.9716 13.546C64.5863 14.2487 64.2406 14.9683 63.9346 15.705C63.6286 16.4303 63.3793 17.167 63.1866 17.915C63.1413 18.0397 63.0223 18.0963 62.8296 18.085C62.6369 18.0737 62.4329 18.0227 62.2176 17.932C62.0136 17.83 61.8323 17.7053 61.6736 17.558C61.5036 17.4107 61.4243 17.2633 61.4356 17.116C61.5376 16.606 61.6679 16.113 61.8266 15.637C61.9966 15.1497 62.1836 14.6737 62.3876 14.209C62.5916 13.733 62.8069 13.2683 63.0336 12.815C63.2716 12.3503 63.5096 11.8857 63.7476 11.421C64.0196 10.877 64.2859 10.35 64.5466 9.84C64.8073 9.31867 65.0396 8.82 65.2436 8.344C65.3796 8.276 65.5439 8.276 65.7366 8.344C65.9406 8.40067 66.1333 8.497 66.3146 8.633C66.4959 8.769 66.6546 8.939 66.7906 9.143C66.9266 9.33567 67.0116 9.53967 67.0456 9.755C67.5329 9.347 68.0259 9.00133 68.5246 8.718C69.0233 8.43467 69.5219 8.276 70.0206 8.242C70.1793 8.242 70.3323 8.31567 70.4796 8.463C70.6383 8.599 70.7743 8.769 70.8876 8.973C71.0009 9.177 71.0746 9.398 71.1086 9.636C71.1426 9.874 71.1199 10.0837 71.0406 10.265C70.7459 10.843 70.4569 11.387 70.1736 11.897C69.8903 12.3957 69.6466 12.8263 69.4426 13.189C69.2613 13.5063 69.0913 13.801 68.9326 14.073C68.7853 14.3337 68.6493 14.5943 68.5246 14.855C68.4113 15.1157 68.3036 15.382 68.2016 15.654C68.1109 15.926 68.0259 16.2207 67.9466 16.538C67.9579 16.5153 67.9976 16.4813 68.0656 16.436H68.0486C68.3886 16.266 68.8079 15.977 69.3066 15.569C69.8053 15.161 70.3266 14.6057 70.8706 13.903C71.0179 13.7217 71.1539 13.546 71.2786 13.376C71.4146 13.206 71.5449 13.036 71.6696 12.866L71.9926 12.373C72.0379 12.3163 72.1229 12.305 72.2476 12.339C72.3723 12.3617 72.4856 12.4127 72.5876 12.492C72.7009 12.5713 72.7859 12.6677 72.8426 12.781C72.9106 12.883 72.9106 12.9737 72.8426 13.053L72.8596 13.019L71.7036 14.651L71.6866 14.668ZM78.4822 11.302C77.8022 12.322 76.9976 13.172 76.0682 13.852C75.1502 14.532 74.1642 15.0363 73.1102 15.365C73.0762 15.671 73.0932 15.96 73.1612 16.232C73.2406 16.504 73.4106 16.6683 73.6712 16.725L73.6372 16.708C73.8526 16.7647 74.1132 16.7477 74.4192 16.657C74.7366 16.5663 75.0766 16.4077 75.4392 16.181C75.8132 15.943 76.2042 15.637 76.6122 15.263C77.0202 14.889 77.4282 14.447 77.8362 13.937C78.0516 13.665 78.2556 13.3873 78.4482 13.104C78.6522 12.8093 78.8449 12.5317 79.0262 12.271C79.1509 12.1237 79.2869 12.0443 79.4342 12.033C79.5929 12.0217 79.7232 12.0613 79.8252 12.152C79.9386 12.2313 80.0066 12.3503 80.0292 12.509C80.0632 12.6563 80.0122 12.8263 79.8762 13.019L79.4512 13.631C79.0886 14.141 78.6466 14.7077 78.1252 15.331C77.6152 15.943 77.0316 16.538 76.3742 17.116C75.9889 17.4333 75.6149 17.6827 75.2522 17.864C74.8896 18.034 74.5552 18.1587 74.2492 18.238C73.9432 18.3287 73.6656 18.3797 73.4162 18.391C73.1782 18.4137 72.9912 18.425 72.8552 18.425C71.9712 18.425 71.3309 18.17 70.9342 17.66C70.5489 17.15 70.4129 16.453 70.5262 15.569C70.6282 14.7983 70.8719 14.0447 71.2572 13.308C71.6539 12.5713 72.2092 11.7723 72.9232 10.911C73.1726 10.6277 73.4842 10.3273 73.8582 10.01C74.2322 9.68133 74.6402 9.381 75.0822 9.109C75.5242 8.837 75.9832 8.616 76.4592 8.446C76.9466 8.276 77.4112 8.19667 77.8532 8.208C78.3179 8.21933 78.6692 8.378 78.9072 8.684C79.1452 8.97867 79.2189 9.381 79.1282 9.891C79.0942 10.1177 79.0206 10.35 78.9072 10.588C78.8052 10.8147 78.6579 11.0583 78.4652 11.319L78.4822 11.302ZM77.5982 9.908C77.1902 9.98733 76.7879 10.1687 76.3912 10.452C75.9946 10.7353 75.6206 11.0697 75.2692 11.455C74.9179 11.8403 74.5949 12.254 74.3002 12.696C74.0056 13.1267 73.7619 13.5347 73.5692 13.92C74.3739 13.5913 75.1219 13.1493 75.8132 12.594C76.5046 12.0273 77.0939 11.353 77.5812 10.571V10.588C77.6492 10.4973 77.6946 10.4067 77.7172 10.316C77.7512 10.2253 77.7796 10.146 77.8022 10.078C77.8249 9.91933 77.7569 9.86267 77.5982 9.908ZM86.4227 11.149C86.4114 11.217 86.366 11.2737 86.2867 11.319C86.2187 11.353 86.1337 11.3813 86.0317 11.404C85.9297 11.4153 85.822 11.421 85.7087 11.421C85.6067 11.421 85.516 11.404 85.4367 11.37C85.5954 11.472 85.7427 11.591 85.8787 11.727C86.0147 11.863 86.128 12.016 86.2187 12.186C86.3094 12.3447 86.366 12.509 86.3887 12.679C86.4227 12.849 86.4057 13.0133 86.3377 13.172C86.2924 13.2513 86.2414 13.342 86.1847 13.444C86.128 13.5347 86.0714 13.631 86.0147 13.733C85.89 13.9483 85.7597 14.1807 85.6237 14.43C85.499 14.6793 85.38 14.923 85.2667 15.161C85.1534 15.399 85.0514 15.6257 84.9607 15.841C84.8814 16.045 84.8304 16.2207 84.8077 16.368C84.8077 16.3907 84.7964 16.4077 84.7737 16.419C84.7624 16.4303 84.751 16.4417 84.7397 16.453H84.8587C85.1987 16.3397 85.5274 16.1527 85.8447 15.892C86.162 15.6313 86.468 15.3367 86.7627 15.008C87.0687 14.668 87.3577 14.311 87.6297 13.937C87.913 13.5517 88.1794 13.1833 88.4287 12.832C88.5194 12.7413 88.5874 12.662 88.6327 12.594C88.678 12.526 88.7234 12.4523 88.7687 12.373C88.814 12.3163 88.899 12.305 89.0237 12.339C89.1484 12.3617 89.2674 12.4127 89.3807 12.492C89.494 12.5713 89.5847 12.6677 89.6527 12.781C89.7207 12.883 89.7207 12.9737 89.6527 13.053L89.1597 13.733V13.75C88.6724 14.4187 88.1624 15.0817 87.6297 15.739C87.1084 16.385 86.5247 16.9687 85.8787 17.49C85.7767 17.5807 85.6464 17.6827 85.4877 17.796C85.3404 17.898 85.1704 17.9943 84.9777 18.085C84.7964 18.187 84.598 18.2663 84.3827 18.323C84.1674 18.391 83.9464 18.4193 83.7197 18.408C83.1757 18.3627 82.7904 18.17 82.5637 17.83C82.3484 17.49 82.269 17.065 82.3257 16.555C81.8157 17.031 81.3 17.4447 80.7787 17.796C80.2574 18.136 79.7587 18.3117 79.2827 18.323C78.852 18.2777 78.5064 18.1587 78.2457 17.966C77.9964 17.762 77.8094 17.524 77.6847 17.252C77.56 16.98 77.4864 16.691 77.4637 16.385C77.4524 16.0677 77.4637 15.773 77.4977 15.501C77.543 15.2517 77.594 15.0477 77.6507 14.889C77.764 14.4697 77.951 14.0107 78.2117 13.512C78.4724 13.0133 78.784 12.5147 79.1467 12.016C79.5094 11.5173 79.906 11.0357 80.3367 10.571C80.7787 10.1063 81.2434 9.69267 81.7307 9.33C82.218 8.96733 82.711 8.67833 83.2097 8.463C83.7197 8.24767 84.224 8.14 84.7227 8.14C84.87 8.14 85.0117 8.15133 85.1477 8.174C85.2837 8.19667 85.431 8.23067 85.5897 8.276C85.8617 8.36667 86.0657 8.514 86.2017 8.718C86.349 8.91067 86.4454 9.143 86.4907 9.415C86.5474 9.67567 86.5644 9.959 86.5417 10.265C86.5304 10.5597 86.4907 10.8543 86.4227 11.149ZM84.4337 11.149C84.547 11.0923 84.6774 11.081 84.8247 11.115C84.9834 11.149 85.142 11.2113 85.3007 11.302C85.244 11.2453 85.227 11.183 85.2497 11.115C85.261 11.081 85.261 11.0413 85.2497 10.996C85.2497 10.9507 85.2554 10.9053 85.2667 10.86C85.278 10.7467 85.2837 10.6277 85.2837 10.503C85.2837 10.3783 85.2667 10.265 85.2327 10.163C85.1987 10.0497 85.142 9.959 85.0627 9.891C84.9834 9.823 84.8757 9.78333 84.7397 9.772C84.3204 9.76067 83.8897 9.91367 83.4477 10.231C83.0057 10.537 82.5807 10.928 82.1727 11.404C81.7647 11.88 81.3907 12.39 81.0507 12.934C80.722 13.478 80.4614 13.971 80.2687 14.413C80.212 14.5377 80.1554 14.6963 80.0987 14.889C80.042 15.0703 80.0024 15.2517 79.9797 15.433C79.957 15.5577 79.9457 15.6767 79.9457 15.79C79.9457 15.9033 79.9684 15.9997 80.0137 16.079C80.0704 16.1583 80.1497 16.2093 80.2517 16.232C80.3537 16.2547 80.4954 16.2433 80.6767 16.198C80.8467 16.1527 81.062 16.0223 81.3227 15.807C81.5834 15.5917 81.8554 15.3423 82.1387 15.059C82.4334 14.7643 82.7167 14.4527 82.9887 14.124C83.272 13.7953 83.51 13.5007 83.7027 13.24C83.8727 12.9 84.0257 12.5713 84.1617 12.254C84.309 11.9253 84.411 11.6477 84.4677 11.421L84.4337 11.149Z" fill="black"/>
</svg>
