<svg width="91" height="26" viewBox="0 0 91 26" fill="none" xmlns="http://www.w3.org/2000/svg">
<path d="M1.663 11.234C2.49033 9.52267 3.49333 8.038 4.672 6.78C5.85067 5.51067 7.11433 4.451 8.463 3.601C9.81167 2.751 11.1943 2.105 12.611 1.663C14.039 1.20967 15.4047 0.937666 16.708 0.846999C17.0593 0.846999 17.337 0.926332 17.541 1.085C17.745 1.23233 17.8867 1.408 17.966 1.612C18.0567 1.80467 18.085 1.99733 18.051 2.19C18.0283 2.38267 17.966 2.53 17.864 2.632C17.762 2.77933 17.575 3.057 17.303 3.465C17.031 3.873 16.7023 4.37167 16.317 4.961C15.943 5.55033 15.5293 6.21333 15.076 6.95C14.6227 7.67533 14.158 8.43467 13.682 9.228C13.2173 10.0213 12.7583 10.8317 12.305 11.659C11.863 12.475 11.455 13.2683 11.081 14.039C10.7183 14.7983 10.4067 15.518 10.146 16.198C9.88533 16.8667 9.71533 17.456 9.636 17.966C9.54533 18.5213 9.57933 18.901 9.738 19.105C9.772 19.1277 9.81733 19.1503 9.874 19.173C9.93067 19.207 9.98167 19.224 10.027 19.224C10.1743 19.224 10.333 19.1787 10.503 19.088C10.673 19.0087 10.8203 18.9407 10.945 18.884C11.1717 18.7593 11.3417 18.6913 11.455 18.68C11.5797 18.6687 11.6307 18.7933 11.608 19.054C11.608 19.394 11.5457 19.7057 11.421 19.989C11.3077 20.2837 11.149 20.499 10.945 20.635C10.4917 20.941 10.0667 21.094 9.67 21.094C9.45467 21.094 9.25067 21.0543 9.058 20.975C8.86533 20.8957 8.66133 20.7767 8.446 20.618C8.02667 20.3007 7.766 19.8587 7.664 19.292C7.562 18.7367 7.57333 18.0963 7.698 17.371C7.81133 16.691 8.004 15.9487 8.276 15.144C8.55933 14.3393 8.89367 13.512 9.279 12.662C9.66433 11.812 10.0837 10.9563 10.537 10.095C11.0017 9.22233 11.4663 8.38367 11.931 7.579C12.407 6.763 12.866 5.998 13.308 5.284C13.7613 4.55867 14.1693 3.91833 14.532 3.363V3.38L14.719 3.091C14.6737 3.11367 14.6227 3.125 14.566 3.125C13.7047 3.295 12.849 3.584 11.999 3.992C11.1603 4.4 10.35 4.88733 9.568 5.454C8.79733 6.02067 8.06633 6.644 7.375 7.324C6.695 7.99267 6.083 8.67833 5.539 9.381C5.00633 10.0723 4.54733 10.758 4.162 11.438C3.788 12.1067 3.52167 12.7243 3.363 13.291C3.06833 13.2797 2.79067 13.223 2.53 13.121C2.26933 13.0077 2.04833 12.8603 1.867 12.679C1.697 12.4977 1.58367 12.288 1.527 12.05C1.48167 11.8007 1.527 11.5287 1.663 11.234ZM21.421 14.668C21.2057 14.9627 20.9223 15.3197 20.571 15.739C20.2197 16.1583 19.8343 16.5663 19.415 16.963C18.9957 17.3597 18.565 17.6997 18.123 17.983C17.6923 18.255 17.2843 18.391 16.899 18.391C16.661 18.391 16.4343 18.3457 16.219 18.255C16.0037 18.1757 15.828 18.0453 15.692 17.864C15.556 17.6827 15.4597 17.4503 15.403 17.167C15.3577 16.8723 15.3747 16.5267 15.454 16.13C15.5333 15.79 15.6297 15.4557 15.743 15.127C15.8677 14.7983 16.015 14.4527 16.185 14.09C16.3663 13.7273 16.5703 13.3363 16.797 12.917C17.0237 12.4863 17.2843 12.0047 17.579 11.472C17.715 11.2453 17.8227 11.0357 17.902 10.843C17.9927 10.639 18.0493 10.4747 18.072 10.35L17.256 11.047C16.78 11.4437 16.338 11.8403 15.93 12.237C15.5333 12.6337 15.1253 13.07 14.706 13.546C14.3207 14.2487 13.975 14.9683 13.669 15.705C13.363 16.4303 13.1137 17.167 12.921 17.915C12.8757 18.0397 12.7567 18.0963 12.564 18.085C12.3713 18.0737 12.1673 18.0227 11.952 17.932C11.748 17.83 11.5667 17.7053 11.408 17.558C11.238 17.4107 11.1587 17.2633 11.17 17.116C11.272 16.606 11.4023 16.113 11.561 15.637C11.731 15.1497 11.918 14.6737 12.122 14.209C12.326 13.733 12.5413 13.2683 12.768 12.815C13.006 12.3503 13.244 11.8857 13.482 11.421C13.754 10.877 14.0203 10.35 14.281 9.84C14.5417 9.31867 14.774 8.82 14.978 8.344C15.114 8.276 15.2783 8.276 15.471 8.344C15.675 8.40067 15.8677 8.497 16.049 8.633C16.2303 8.769 16.389 8.939 16.525 9.143C16.661 9.33567 16.746 9.53967 16.78 9.755C17.2673 9.347 17.7603 9.00133 18.259 8.718C18.7577 8.43467 19.2563 8.276 19.755 8.242C19.9137 8.242 20.0667 8.31567 20.214 8.463C20.3727 8.599 20.5087 8.769 20.622 8.973C20.7353 9.177 20.809 9.398 20.843 9.636C20.877 9.874 20.8543 10.0837 20.775 10.265C20.4803 10.843 20.1913 11.387 19.908 11.897C19.6247 12.3957 19.381 12.8263 19.177 13.189C18.9957 13.5063 18.8257 13.801 18.667 14.073C18.5197 14.3337 18.3837 14.5943 18.259 14.855C18.1457 15.1157 18.038 15.382 17.936 15.654C17.8453 15.926 17.7603 16.2207 17.681 16.538C17.6923 16.5153 17.732 16.4813 17.8 16.436H17.783C18.123 16.266 18.5423 15.977 19.041 15.569C19.5397 15.161 20.061 14.6057 20.605 13.903C20.7523 13.7217 20.8883 13.546 21.013 13.376C21.149 13.206 21.2793 13.036 21.404 12.866L21.727 12.373C21.7723 12.3163 21.8573 12.305 21.982 12.339C22.1067 12.3617 22.22 12.4127 22.322 12.492C22.4353 12.5713 22.5203 12.6677 22.577 12.781C22.645 12.883 22.645 12.9737 22.577 13.053L22.594 13.019L21.438 14.651L21.421 14.668ZM19.4276 15.841C19.5183 15.365 19.6996 14.9003 19.9716 14.447C20.2436 13.9937 20.5666 13.631 20.9406 13.359L21.4166 12.747C21.8019 12.203 22.1929 11.6647 22.5896 11.132C22.9976 10.5993 23.4169 10.0837 23.8476 9.585C23.9383 9.49433 24.0176 9.40367 24.0856 9.313C24.1536 9.22233 24.2273 9.13167 24.3066 9.041C24.5446 8.735 24.8166 8.40633 25.1226 8.055C25.4399 7.70367 25.8819 7.29567 26.4486 6.831C26.6073 6.92167 26.7999 7.052 27.0266 7.222C27.2533 7.38067 27.4403 7.562 27.5876 7.766C27.7463 7.95867 27.8369 8.16267 27.8596 8.378C27.8823 8.59333 27.7746 8.786 27.5366 8.956L27.5876 8.939C27.3609 9.13167 27.1966 9.28467 27.0946 9.398C27.0039 9.5 26.9019 9.62467 26.7886 9.772L26.5166 10.112C26.2219 10.5087 25.9953 10.928 25.8366 11.37C25.6893 11.812 25.5759 12.2483 25.4966 12.679C25.4513 12.917 25.4173 13.1607 25.3946 13.41C25.3719 13.648 25.3493 13.8917 25.3266 14.141L25.2076 15.161C25.1396 15.671 24.9979 16.1413 24.7826 16.572C24.5673 16.9913 24.2953 17.3483 23.9666 17.643C23.6493 17.9377 23.2866 18.1587 22.8786 18.306C22.4819 18.4647 22.0626 18.5327 21.6206 18.51C21.1786 18.476 20.8046 18.3797 20.4986 18.221C20.1926 18.0623 19.9546 17.864 19.7846 17.626C19.6033 17.388 19.4843 17.116 19.4276 16.81C19.3709 16.504 19.3709 16.181 19.4276 15.841ZM23.2186 12.696C23.2299 12.6053 23.2469 12.5147 23.2696 12.424C23.2923 12.322 23.3149 12.2257 23.3376 12.135L22.6236 13.087L22.6066 13.104C22.6293 13.1947 22.6519 13.3533 22.6746 13.58C22.6973 13.7953 22.7029 14.0277 22.6916 14.277C22.6803 14.515 22.6463 14.7473 22.5896 14.974C22.5443 15.1893 22.4649 15.348 22.3516 15.45C22.2836 15.2687 22.1703 15.1667 22.0116 15.144C21.8529 15.11 21.6886 15.1327 21.5186 15.212C21.3486 15.2913 21.1956 15.4047 21.0596 15.552C20.9236 15.688 20.8386 15.8297 20.8046 15.977C20.7933 16.0337 20.7933 16.1073 20.8046 16.198C20.8159 16.2773 20.8329 16.3567 20.8556 16.436C20.9349 16.6173 21.0539 16.7533 21.2126 16.844C21.3713 16.9233 21.5299 16.9743 21.6886 16.997C21.8586 17.0197 22.0116 16.9913 22.1476 16.912C22.2836 16.8327 22.4026 16.725 22.5046 16.589C22.6179 16.453 22.7086 16.2943 22.7766 16.113C22.8559 15.9317 22.9126 15.739 22.9466 15.535C22.9919 15.127 23.0259 14.6963 23.0486 14.243C23.0713 14.005 23.0883 13.7557 23.0996 13.495C23.1223 13.2343 23.1619 12.968 23.2186 12.696ZM28.1077 9.024C27.9037 9.092 27.7337 9.092 27.5977 9.024C27.473 8.956 27.3937 8.85967 27.3597 8.735C27.3257 8.599 27.3427 8.45167 27.4107 8.293C27.49 8.13433 27.626 7.99267 27.8187 7.868C28.2834 7.57333 28.7367 7.307 29.1787 7.069C29.632 6.831 30.0854 6.61567 30.5387 6.423C31.3887 4.94967 32.029 3.686 32.4597 2.632C32.641 2.54133 32.8507 2.547 33.0887 2.649C33.338 2.73967 33.559 2.887 33.7517 3.091C33.9557 3.295 34.1087 3.533 34.2107 3.805C34.3127 4.06567 34.3127 4.32067 34.2107 4.57L33.7177 5.437C34.477 5.301 35.225 5.233 35.9617 5.233C36.075 5.233 36.2224 5.23867 36.4037 5.25C36.585 5.25 36.7324 5.25567 36.8457 5.267C36.8684 5.437 36.8457 5.624 36.7777 5.828C36.721 6.02067 36.636 6.20767 36.5227 6.389C36.4094 6.559 36.279 6.70633 36.1317 6.831C35.9957 6.95567 35.8597 7.018 35.7237 7.018C35.6104 7.00667 35.4914 7.001 35.3667 7.001C35.242 6.98967 35.1174 6.984 34.9927 6.984C34.6074 6.984 34.2164 7.00667 33.8197 7.052C33.423 7.09733 33.0207 7.16533 32.6127 7.256C32.454 7.528 32.2897 7.79433 32.1197 8.055C31.961 8.31567 31.8024 8.565 31.6437 8.803L31.5077 9.024C31.3717 9.23933 31.1847 9.534 30.9467 9.908C30.7087 10.282 30.448 10.7013 30.1647 11.166C29.8927 11.6193 29.6094 12.101 29.3147 12.611C29.02 13.1097 28.748 13.597 28.4987 14.073C28.2494 14.5377 28.0397 14.9683 27.8697 15.365C27.6997 15.7617 27.5977 16.079 27.5637 16.317C27.541 16.351 27.5297 16.3793 27.5297 16.402C27.5297 16.4247 27.524 16.4417 27.5127 16.453H27.6317C27.9604 16.3397 28.2834 16.1583 28.6007 15.909C28.918 15.6483 29.224 15.3593 29.5187 15.042C29.8134 14.7133 30.0967 14.3677 30.3687 14.005C30.6407 13.631 30.9014 13.2683 31.1507 12.917H31.1337C31.2017 12.815 31.2754 12.7187 31.3547 12.628C31.434 12.526 31.5077 12.4297 31.5757 12.339C31.621 12.271 31.7004 12.254 31.8137 12.288C31.927 12.322 32.0347 12.3787 32.1367 12.458C32.25 12.5373 32.335 12.6337 32.3917 12.747C32.4597 12.849 32.471 12.9397 32.4257 13.019L31.8647 13.784C31.4 14.43 30.8957 15.0873 30.3517 15.756C29.819 16.4133 29.2524 16.9913 28.6517 17.49C28.5497 17.5807 28.4194 17.6827 28.2607 17.796C28.102 17.898 27.9264 17.9943 27.7337 18.085C27.541 18.1757 27.337 18.2493 27.1217 18.306C26.9064 18.374 26.691 18.408 26.4757 18.408C26.2264 18.3967 26.0224 18.3343 25.8637 18.221C25.705 18.1077 25.5804 17.9603 25.4897 17.779C25.4104 17.5863 25.365 17.371 25.3537 17.133C25.331 16.8837 25.3424 16.6117 25.3877 16.317C25.4104 16.1923 25.4387 16.062 25.4727 15.926C25.5067 15.7787 25.5464 15.6483 25.5917 15.535C25.773 14.957 25.994 14.379 26.2547 13.801C26.5154 13.223 26.7987 12.6507 27.1047 12.084C27.4107 11.5173 27.728 10.9563 28.0567 10.401C28.3967 9.84567 28.7367 9.30167 29.0767 8.769L29.2977 8.429L28.1587 9.007L28.1077 9.024ZM38.9461 11.149C38.9348 11.217 38.8895 11.2737 38.8101 11.319C38.7421 11.353 38.6571 11.3813 38.5551 11.404C38.4531 11.4153 38.3455 11.421 38.2321 11.421C38.1301 11.421 38.0395 11.404 37.9601 11.37C38.1188 11.472 38.2661 11.591 38.4021 11.727C38.5381 11.863 38.6515 12.016 38.7421 12.186C38.8328 12.3447 38.8895 12.509 38.9121 12.679C38.9461 12.849 38.9291 13.0133 38.8611 13.172C38.8158 13.2513 38.7648 13.342 38.7081 13.444C38.6515 13.5347 38.5948 13.631 38.5381 13.733C38.4135 13.9483 38.2831 14.1807 38.1471 14.43C38.0225 14.6793 37.9035 14.923 37.7901 15.161C37.6768 15.399 37.5748 15.6257 37.4841 15.841C37.4048 16.045 37.3538 16.2207 37.3311 16.368C37.3311 16.3907 37.3198 16.4077 37.2971 16.419C37.2858 16.4303 37.2745 16.4417 37.2631 16.453H37.3821C37.7221 16.3397 38.0508 16.1527 38.3681 15.892C38.6855 15.6313 38.9915 15.3367 39.2861 15.008C39.5921 14.668 39.8811 14.311 40.1531 13.937C40.4365 13.5517 40.7028 13.1833 40.9521 12.832C41.0428 12.7413 41.1108 12.662 41.1561 12.594C41.2015 12.526 41.2468 12.4523 41.2921 12.373C41.3375 12.3163 41.4225 12.305 41.5471 12.339C41.6718 12.3617 41.7908 12.4127 41.9041 12.492C42.0175 12.5713 42.1081 12.6677 42.1761 12.781C42.2441 12.883 42.2441 12.9737 42.1761 13.053L41.6831 13.733V13.75C41.1958 14.4187 40.6858 15.0817 40.1531 15.739C39.6318 16.385 39.0481 16.9687 38.4021 17.49C38.3001 17.5807 38.1698 17.6827 38.0111 17.796C37.8638 17.898 37.6938 17.9943 37.5011 18.085C37.3198 18.187 37.1215 18.2663 36.9061 18.323C36.6908 18.391 36.4698 18.4193 36.2431 18.408C35.6991 18.3627 35.3138 18.17 35.0871 17.83C34.8718 17.49 34.7925 17.065 34.8491 16.555C34.3391 17.031 33.8235 17.4447 33.3021 17.796C32.7808 18.136 32.2821 18.3117 31.8061 18.323C31.3755 18.2777 31.0298 18.1587 30.7691 17.966C30.5198 17.762 30.3328 17.524 30.2081 17.252C30.0835 16.98 30.0098 16.691 29.9871 16.385C29.9758 16.0677 29.9871 15.773 30.0211 15.501C30.0665 15.2517 30.1175 15.0477 30.1741 14.889C30.2875 14.4697 30.4745 14.0107 30.7351 13.512C30.9958 13.0133 31.3075 12.5147 31.6701 12.016C32.0328 11.5173 32.4295 11.0357 32.8601 10.571C33.3021 10.1063 33.7668 9.69267 34.2541 9.33C34.7415 8.96733 35.2345 8.67833 35.7331 8.463C36.2431 8.24767 36.7475 8.14 37.2461 8.14C37.3935 8.14 37.5351 8.15133 37.6711 8.174C37.8071 8.19667 37.9545 8.23067 38.1131 8.276C38.3851 8.36667 38.5891 8.514 38.7251 8.718C38.8725 8.91067 38.9688 9.143 39.0141 9.415C39.0708 9.67567 39.0878 9.959 39.0651 10.265C39.0538 10.5597 39.0141 10.8543 38.9461 11.149ZM36.9571 11.149C37.0705 11.0923 37.2008 11.081 37.3481 11.115C37.5068 11.149 37.6655 11.2113 37.8241 11.302C37.7675 11.2453 37.7505 11.183 37.7731 11.115C37.7845 11.081 37.7845 11.0413 37.7731 10.996C37.7731 10.9507 37.7788 10.9053 37.7901 10.86C37.8015 10.7467 37.8071 10.6277 37.8071 10.503C37.8071 10.3783 37.7901 10.265 37.7561 10.163C37.7221 10.0497 37.6655 9.959 37.5861 9.891C37.5068 9.823 37.3991 9.78333 37.2631 9.772C36.8438 9.76067 36.4131 9.91367 35.9711 10.231C35.5291 10.537 35.1041 10.928 34.6961 11.404C34.2881 11.88 33.9141 12.39 33.5741 12.934C33.2455 13.478 32.9848 13.971 32.7921 14.413C32.7355 14.5377 32.6788 14.6963 32.6221 14.889C32.5655 15.0703 32.5258 15.2517 32.5031 15.433C32.4805 15.5577 32.4691 15.6767 32.4691 15.79C32.4691 15.9033 32.4918 15.9997 32.5371 16.079C32.5938 16.1583 32.6731 16.2093 32.7751 16.232C32.8771 16.2547 33.0188 16.2433 33.2001 16.198C33.3701 16.1527 33.5855 16.0223 33.8461 15.807C34.1068 15.5917 34.3788 15.3423 34.6621 15.059C34.9568 14.7643 35.2401 14.4527 35.5121 14.124C35.7955 13.7953 36.0335 13.5007 36.2261 13.24C36.3961 12.9 36.5491 12.5713 36.6851 12.254C36.8325 11.9253 36.9345 11.6477 36.9911 11.421L36.9571 11.149ZM49.6768 14.668C49.4615 14.9627 49.1782 15.3197 48.8268 15.739C48.4755 16.1583 48.0902 16.5663 47.6708 16.963C47.2515 17.3597 46.8208 17.6997 46.3788 17.983C45.9482 18.255 45.5402 18.391 45.1548 18.391C44.9168 18.391 44.6902 18.3457 44.4748 18.255C44.2595 18.1757 44.0838 18.0453 43.9478 17.864C43.8118 17.6827 43.7155 17.4503 43.6588 17.167C43.6135 16.8723 43.6305 16.5267 43.7098 16.13C43.7892 15.79 43.8855 15.4557 43.9988 15.127C44.1235 14.7983 44.2708 14.4527 44.4408 14.09C44.6222 13.7273 44.8262 13.3363 45.0528 12.917C45.2795 12.4863 45.5402 12.0047 45.8348 11.472C45.9708 11.2453 46.0785 11.0357 46.1578 10.843C46.2485 10.639 46.3052 10.4747 46.3278 10.35L45.5118 11.047C45.0358 11.4437 44.5938 11.8403 44.1858 12.237C43.7892 12.6337 43.3812 13.07 42.9618 13.546C42.5765 14.2487 42.2308 14.9683 41.9248 15.705C41.6188 16.4303 41.3695 17.167 41.1768 17.915C41.1315 18.0397 41.0125 18.0963 40.8198 18.085C40.6272 18.0737 40.4232 18.0227 40.2078 17.932C40.0038 17.83 39.8225 17.7053 39.6638 17.558C39.4938 17.4107 39.4145 17.2633 39.4258 17.116C39.5278 16.606 39.6582 16.113 39.8168 15.637C39.9868 15.1497 40.1738 14.6737 40.3778 14.209C40.5818 13.733 40.7972 13.2683 41.0238 12.815C41.2618 12.3503 41.4998 11.8857 41.7378 11.421C42.0098 10.877 42.2762 10.35 42.5368 9.84C42.7975 9.31867 43.0298 8.82 43.2338 8.344C43.3698 8.276 43.5342 8.276 43.7268 8.344C43.9308 8.40067 44.1235 8.497 44.3048 8.633C44.4862 8.769 44.6448 8.939 44.7808 9.143C44.9168 9.33567 45.0018 9.53967 45.0358 9.755C45.5232 9.347 46.0162 9.00133 46.5148 8.718C47.0135 8.43467 47.5122 8.276 48.0108 8.242C48.1695 8.242 48.3225 8.31567 48.4698 8.463C48.6285 8.599 48.7645 8.769 48.8778 8.973C48.9912 9.177 49.0648 9.398 49.0988 9.636C49.1328 9.874 49.1102 10.0837 49.0308 10.265C48.7362 10.843 48.4472 11.387 48.1638 11.897C47.8805 12.3957 47.6368 12.8263 47.4328 13.189C47.2515 13.5063 47.0815 13.801 46.9228 14.073C46.7755 14.3337 46.6395 14.5943 46.5148 14.855C46.4015 15.1157 46.2938 15.382 46.1918 15.654C46.1012 15.926 46.0162 16.2207 45.9368 16.538C45.9482 16.5153 45.9878 16.4813 46.0558 16.436H46.0388C46.3788 16.266 46.7982 15.977 47.2968 15.569C47.7955 15.161 48.3168 14.6057 48.8608 13.903C49.0082 13.7217 49.1442 13.546 49.2688 13.376C49.4048 13.206 49.5352 13.036 49.6598 12.866L49.9828 12.373C50.0282 12.3163 50.1132 12.305 50.2378 12.339C50.3625 12.3617 50.4758 12.4127 50.5778 12.492C50.6912 12.5713 50.7762 12.6677 50.8328 12.781C50.9008 12.883 50.9008 12.9737 50.8328 13.053L50.8498 13.019L49.6938 14.651L49.6768 14.668ZM51.1175 9.024C50.9135 9.092 50.7435 9.092 50.6075 9.024C50.4828 8.956 50.4035 8.85967 50.3695 8.735C50.3355 8.599 50.3525 8.45167 50.4205 8.293C50.4998 8.13433 50.6358 7.99267 50.8285 7.868C51.2931 7.57333 51.7465 7.307 52.1885 7.069C52.6418 6.831 53.0951 6.61567 53.5485 6.423C54.3985 4.94967 55.0388 3.686 55.4695 2.632C55.6508 2.54133 55.8605 2.547 56.0985 2.649C56.3478 2.73967 56.5688 2.887 56.7615 3.091C56.9655 3.295 57.1185 3.533 57.2205 3.805C57.3225 4.06567 57.3225 4.32067 57.2205 4.57L56.7275 5.437C57.4868 5.301 58.2348 5.233 58.9715 5.233C59.0848 5.233 59.2321 5.23867 59.4135 5.25C59.5948 5.25 59.7421 5.25567 59.8555 5.267C59.8781 5.437 59.8555 5.624 59.7875 5.828C59.7308 6.02067 59.6458 6.20767 59.5325 6.389C59.4191 6.559 59.2888 6.70633 59.1415 6.831C59.0055 6.95567 58.8695 7.018 58.7335 7.018C58.6201 7.00667 58.5011 7.001 58.3765 7.001C58.2518 6.98967 58.1271 6.984 58.0025 6.984C57.6171 6.984 57.2261 7.00667 56.8295 7.052C56.4328 7.09733 56.0305 7.16533 55.6225 7.256C55.4638 7.528 55.2995 7.79433 55.1295 8.055C54.9708 8.31567 54.8121 8.565 54.6535 8.803L54.5175 9.024C54.3815 9.23933 54.1945 9.534 53.9565 9.908C53.7185 10.282 53.4578 10.7013 53.1745 11.166C52.9025 11.6193 52.6191 12.101 52.3245 12.611C52.0298 13.1097 51.7578 13.597 51.5085 14.073C51.2591 14.5377 51.0495 14.9683 50.8795 15.365C50.7095 15.7617 50.6075 16.079 50.5735 16.317C50.5508 16.351 50.5395 16.3793 50.5395 16.402C50.5395 16.4247 50.5338 16.4417 50.5225 16.453H50.6415C50.9701 16.3397 51.2931 16.1583 51.6105 15.909C51.9278 15.6483 52.2338 15.3593 52.5285 15.042C52.8231 14.7133 53.1065 14.3677 53.3785 14.005C53.6505 13.631 53.9111 13.2683 54.1605 12.917H54.1435C54.2115 12.815 54.2851 12.7187 54.3645 12.628C54.4438 12.526 54.5175 12.4297 54.5855 12.339C54.6308 12.271 54.7101 12.254 54.8235 12.288C54.9368 12.322 55.0445 12.3787 55.1465 12.458C55.2598 12.5373 55.3448 12.6337 55.4015 12.747C55.4695 12.849 55.4808 12.9397 55.4355 13.019L54.8745 13.784C54.4098 14.43 53.9055 15.0873 53.3615 15.756C52.8288 16.4133 52.2621 16.9913 51.6615 17.49C51.5595 17.5807 51.4291 17.6827 51.2705 17.796C51.1118 17.898 50.9361 17.9943 50.7435 18.085C50.5508 18.1757 50.3468 18.2493 50.1315 18.306C49.9161 18.374 49.7008 18.408 49.4855 18.408C49.2361 18.3967 49.0321 18.3343 48.8735 18.221C48.7148 18.1077 48.5901 17.9603 48.4995 17.779C48.4201 17.5863 48.3748 17.371 48.3635 17.133C48.3408 16.8837 48.3521 16.6117 48.3975 16.317C48.4201 16.1923 48.4485 16.062 48.4825 15.926C48.5165 15.7787 48.5561 15.6483 48.6015 15.535C48.7828 14.957 49.0038 14.379 49.2645 13.801C49.5251 13.223 49.8085 12.6507 50.1145 12.084C50.4205 11.5173 50.7378 10.9563 51.0665 10.401C51.4065 9.84567 51.7465 9.30167 52.0865 8.769L52.3075 8.429L51.1685 9.007L51.1175 9.024ZM61.9559 11.149C61.9446 11.217 61.8992 11.2737 61.8199 11.319C61.7519 11.353 61.6669 11.3813 61.5649 11.404C61.4629 11.4153 61.3552 11.421 61.2419 11.421C61.1399 11.421 61.0492 11.404 60.9699 11.37C61.1286 11.472 61.2759 11.591 61.4119 11.727C61.5479 11.863 61.6612 12.016 61.7519 12.186C61.8426 12.3447 61.8992 12.509 61.9219 12.679C61.9559 12.849 61.9389 13.0133 61.8709 13.172C61.8256 13.2513 61.7746 13.342 61.7179 13.444C61.6612 13.5347 61.6046 13.631 61.5479 13.733C61.4232 13.9483 61.2929 14.1807 61.1569 14.43C61.0322 14.6793 60.9132 14.923 60.7999 15.161C60.6866 15.399 60.5846 15.6257 60.4939 15.841C60.4146 16.045 60.3636 16.2207 60.3409 16.368C60.3409 16.3907 60.3296 16.4077 60.3069 16.419C60.2956 16.4303 60.2842 16.4417 60.2729 16.453H60.3919C60.7319 16.3397 61.0606 16.1527 61.3779 15.892C61.6952 15.6313 62.0012 15.3367 62.2959 15.008C62.6019 14.668 62.8909 14.311 63.1629 13.937C63.4462 13.5517 63.7126 13.1833 63.9619 12.832C64.0526 12.7413 64.1206 12.662 64.1659 12.594C64.2112 12.526 64.2566 12.4523 64.3019 12.373C64.3472 12.3163 64.4322 12.305 64.5569 12.339C64.6816 12.3617 64.8006 12.4127 64.9139 12.492C65.0272 12.5713 65.1179 12.6677 65.1859 12.781C65.2539 12.883 65.2539 12.9737 65.1859 13.053L64.6929 13.733V13.75C64.2056 14.4187 63.6956 15.0817 63.1629 15.739C62.6416 16.385 62.0579 16.9687 61.4119 17.49C61.3099 17.5807 61.1796 17.6827 61.0209 17.796C60.8736 17.898 60.7036 17.9943 60.5109 18.085C60.3296 18.187 60.1312 18.2663 59.9159 18.323C59.7006 18.391 59.4796 18.4193 59.2529 18.408C58.7089 18.3627 58.3236 18.17 58.0969 17.83C57.8816 17.49 57.8022 17.065 57.8589 16.555C57.3489 17.031 56.8332 17.4447 56.3119 17.796C55.7906 18.136 55.2919 18.3117 54.8159 18.323C54.3852 18.2777 54.0396 18.1587 53.7789 17.966C53.5296 17.762 53.3426 17.524 53.2179 17.252C53.0932 16.98 53.0196 16.691 52.9969 16.385C52.9856 16.0677 52.9969 15.773 53.0309 15.501C53.0762 15.2517 53.1272 15.0477 53.1839 14.889C53.2972 14.4697 53.4842 14.0107 53.7449 13.512C54.0056 13.0133 54.3172 12.5147 54.6799 12.016C55.0426 11.5173 55.4392 11.0357 55.8699 10.571C56.3119 10.1063 56.7766 9.69267 57.2639 9.33C57.7512 8.96733 58.2442 8.67833 58.7429 8.463C59.2529 8.24767 59.7572 8.14 60.2559 8.14C60.4032 8.14 60.5449 8.15133 60.6809 8.174C60.8169 8.19667 60.9642 8.23067 61.1229 8.276C61.3949 8.36667 61.5989 8.514 61.7349 8.718C61.8822 8.91067 61.9786 9.143 62.0239 9.415C62.0806 9.67567 62.0976 9.959 62.0749 10.265C62.0636 10.5597 62.0239 10.8543 61.9559 11.149ZM59.9669 11.149C60.0802 11.0923 60.2106 11.081 60.3579 11.115C60.5166 11.149 60.6752 11.2113 60.8339 11.302C60.7772 11.2453 60.7602 11.183 60.7829 11.115C60.7942 11.081 60.7942 11.0413 60.7829 10.996C60.7829 10.9507 60.7886 10.9053 60.7999 10.86C60.8112 10.7467 60.8169 10.6277 60.8169 10.503C60.8169 10.3783 60.7999 10.265 60.7659 10.163C60.7319 10.0497 60.6752 9.959 60.5959 9.891C60.5166 9.823 60.4089 9.78333 60.2729 9.772C59.8536 9.76067 59.4229 9.91367 58.9809 10.231C58.5389 10.537 58.1139 10.928 57.7059 11.404C57.2979 11.88 56.9239 12.39 56.5839 12.934C56.2552 13.478 55.9946 13.971 55.8019 14.413C55.7452 14.5377 55.6886 14.6963 55.6319 14.889C55.5752 15.0703 55.5356 15.2517 55.5129 15.433C55.4902 15.5577 55.4789 15.6767 55.4789 15.79C55.4789 15.9033 55.5016 15.9997 55.5469 16.079C55.6036 16.1583 55.6829 16.2093 55.7849 16.232C55.8869 16.2547 56.0286 16.2433 56.2099 16.198C56.3799 16.1527 56.5952 16.0223 56.8559 15.807C57.1166 15.5917 57.3886 15.3423 57.6719 15.059C57.9666 14.7643 58.2499 14.4527 58.5219 14.124C58.8052 13.7953 59.0432 13.5007 59.2359 13.24C59.4059 12.9 59.5589 12.5713 59.6949 12.254C59.8422 11.9253 59.9442 11.6477 60.0009 11.421L59.9669 11.149ZM72.6866 14.668C72.4713 14.9627 72.1879 15.3197 71.8366 15.739C71.4853 16.1583 71.0999 16.5663 70.6806 16.963C70.2613 17.3597 69.8306 17.6997 69.3886 17.983C68.9579 18.255 68.5499 18.391 68.1646 18.391C67.9266 18.391 67.6999 18.3457 67.4846 18.255C67.2693 18.1757 67.0936 18.0453 66.9576 17.864C66.8216 17.6827 66.7253 17.4503 66.6686 17.167C66.6233 16.8723 66.6403 16.5267 66.7196 16.13C66.7989 15.79 66.8953 15.4557 67.0086 15.127C67.1333 14.7983 67.2806 14.4527 67.4506 14.09C67.6319 13.7273 67.8359 13.3363 68.0626 12.917C68.2893 12.4863 68.5499 12.0047 68.8446 11.472C68.9806 11.2453 69.0883 11.0357 69.1676 10.843C69.2583 10.639 69.3149 10.4747 69.3376 10.35L68.5216 11.047C68.0456 11.4437 67.6036 11.8403 67.1956 12.237C66.7989 12.6337 66.3909 13.07 65.9716 13.546C65.5863 14.2487 65.2406 14.9683 64.9346 15.705C64.6286 16.4303 64.3793 17.167 64.1866 17.915C64.1413 18.0397 64.0223 18.0963 63.8296 18.085C63.6369 18.0737 63.4329 18.0227 63.2176 17.932C63.0136 17.83 62.8323 17.7053 62.6736 17.558C62.5036 17.4107 62.4243 17.2633 62.4356 17.116C62.5376 16.606 62.6679 16.113 62.8266 15.637C62.9966 15.1497 63.1836 14.6737 63.3876 14.209C63.5916 13.733 63.8069 13.2683 64.0336 12.815C64.2716 12.3503 64.5096 11.8857 64.7476 11.421C65.0196 10.877 65.2859 10.35 65.5466 9.84C65.8073 9.31867 66.0396 8.82 66.2436 8.344C66.3796 8.276 66.5439 8.276 66.7366 8.344C66.9406 8.40067 67.1333 8.497 67.3146 8.633C67.4959 8.769 67.6546 8.939 67.7906 9.143C67.9266 9.33567 68.0116 9.53967 68.0456 9.755C68.5329 9.347 69.0259 9.00133 69.5246 8.718C70.0233 8.43467 70.5219 8.276 71.0206 8.242C71.1793 8.242 71.3323 8.31567 71.4796 8.463C71.6383 8.599 71.7743 8.769 71.8876 8.973C72.0009 9.177 72.0746 9.398 72.1086 9.636C72.1426 9.874 72.1199 10.0837 72.0406 10.265C71.7459 10.843 71.4569 11.387 71.1736 11.897C70.8903 12.3957 70.6466 12.8263 70.4426 13.189C70.2613 13.5063 70.0913 13.801 69.9326 14.073C69.7853 14.3337 69.6493 14.5943 69.5246 14.855C69.4113 15.1157 69.3036 15.382 69.2016 15.654C69.1109 15.926 69.0259 16.2207 68.9466 16.538C68.9579 16.5153 68.9976 16.4813 69.0656 16.436H69.0486C69.3886 16.266 69.8079 15.977 70.3066 15.569C70.8053 15.161 71.3266 14.6057 71.8706 13.903C72.0179 13.7217 72.1539 13.546 72.2786 13.376C72.4146 13.206 72.5449 13.036 72.6696 12.866L72.9926 12.373C73.0379 12.3163 73.1229 12.305 73.2476 12.339C73.3723 12.3617 73.4856 12.4127 73.5876 12.492C73.7009 12.5713 73.7859 12.6677 73.8426 12.781C73.9106 12.883 73.9106 12.9737 73.8426 13.053L73.8596 13.019L72.7036 14.651L72.6866 14.668ZM79.4822 11.302C78.8022 12.322 77.9976 13.172 77.0682 13.852C76.1502 14.532 75.1642 15.0363 74.1102 15.365C74.0762 15.671 74.0932 15.96 74.1612 16.232C74.2406 16.504 74.4106 16.6683 74.6712 16.725L74.6372 16.708C74.8526 16.7647 75.1132 16.7477 75.4192 16.657C75.7366 16.5663 76.0766 16.4077 76.4392 16.181C76.8132 15.943 77.2042 15.637 77.6122 15.263C78.0202 14.889 78.4282 14.447 78.8362 13.937C79.0516 13.665 79.2556 13.3873 79.4482 13.104C79.6522 12.8093 79.8449 12.5317 80.0262 12.271C80.1509 12.1237 80.2869 12.0443 80.4342 12.033C80.5929 12.0217 80.7232 12.0613 80.8252 12.152C80.9386 12.2313 81.0066 12.3503 81.0292 12.509C81.0632 12.6563 81.0122 12.8263 80.8762 13.019L80.4512 13.631C80.0886 14.141 79.6466 14.7077 79.1252 15.331C78.6152 15.943 78.0316 16.538 77.3742 17.116C76.9889 17.4333 76.6149 17.6827 76.2522 17.864C75.8896 18.034 75.5552 18.1587 75.2492 18.238C74.9432 18.3287 74.6656 18.3797 74.4162 18.391C74.1782 18.4137 73.9912 18.425 73.8552 18.425C72.9712 18.425 72.3309 18.17 71.9342 17.66C71.5489 17.15 71.4129 16.453 71.5262 15.569C71.6282 14.7983 71.8719 14.0447 72.2572 13.308C72.6539 12.5713 73.2092 11.7723 73.9232 10.911C74.1726 10.6277 74.4842 10.3273 74.8582 10.01C75.2322 9.68133 75.6402 9.381 76.0822 9.109C76.5242 8.837 76.9832 8.616 77.4592 8.446C77.9466 8.276 78.4112 8.19667 78.8532 8.208C79.3179 8.21933 79.6692 8.378 79.9072 8.684C80.1452 8.97867 80.2189 9.381 80.1282 9.891C80.0942 10.1177 80.0206 10.35 79.9072 10.588C79.8052 10.8147 79.6579 11.0583 79.4652 11.319L79.4822 11.302ZM78.5982 9.908C78.1902 9.98733 77.7879 10.1687 77.3912 10.452C76.9946 10.7353 76.6206 11.0697 76.2692 11.455C75.9179 11.8403 75.5949 12.254 75.3002 12.696C75.0056 13.1267 74.7619 13.5347 74.5692 13.92C75.3739 13.5913 76.1219 13.1493 76.8132 12.594C77.5046 12.0273 78.0939 11.353 78.5812 10.571V10.588C78.6492 10.4973 78.6946 10.4067 78.7172 10.316C78.7512 10.2253 78.7796 10.146 78.8022 10.078C78.8249 9.91933 78.7569 9.86267 78.5982 9.908ZM87.4227 11.149C87.4114 11.217 87.366 11.2737 87.2867 11.319C87.2187 11.353 87.1337 11.3813 87.0317 11.404C86.9297 11.4153 86.822 11.421 86.7087 11.421C86.6067 11.421 86.516 11.404 86.4367 11.37C86.5954 11.472 86.7427 11.591 86.8787 11.727C87.0147 11.863 87.128 12.016 87.2187 12.186C87.3094 12.3447 87.366 12.509 87.3887 12.679C87.4227 12.849 87.4057 13.0133 87.3377 13.172C87.2924 13.2513 87.2414 13.342 87.1847 13.444C87.128 13.5347 87.0714 13.631 87.0147 13.733C86.89 13.9483 86.7597 14.1807 86.6237 14.43C86.499 14.6793 86.38 14.923 86.2667 15.161C86.1534 15.399 86.0514 15.6257 85.9607 15.841C85.8814 16.045 85.8304 16.2207 85.8077 16.368C85.8077 16.3907 85.7964 16.4077 85.7737 16.419C85.7624 16.4303 85.751 16.4417 85.7397 16.453H85.8587C86.1987 16.3397 86.5274 16.1527 86.8447 15.892C87.162 15.6313 87.468 15.3367 87.7627 15.008C88.0687 14.668 88.3577 14.311 88.6297 13.937C88.913 13.5517 89.1794 13.1833 89.4287 12.832C89.5194 12.7413 89.5874 12.662 89.6327 12.594C89.678 12.526 89.7234 12.4523 89.7687 12.373C89.814 12.3163 89.899 12.305 90.0237 12.339C90.1484 12.3617 90.2674 12.4127 90.3807 12.492C90.494 12.5713 90.5847 12.6677 90.6527 12.781C90.7207 12.883 90.7207 12.9737 90.6527 13.053L90.1597 13.733V13.75C89.6724 14.4187 89.1624 15.0817 88.6297 15.739C88.1084 16.385 87.5247 16.9687 86.8787 17.49C86.7767 17.5807 86.6464 17.6827 86.4877 17.796C86.3404 17.898 86.1704 17.9943 85.9777 18.085C85.7964 18.187 85.598 18.2663 85.3827 18.323C85.1674 18.391 84.9464 18.4193 84.7197 18.408C84.1757 18.3627 83.7904 18.17 83.5637 17.83C83.3484 17.49 83.269 17.065 83.3257 16.555C82.8157 17.031 82.3 17.4447 81.7787 17.796C81.2574 18.136 80.7587 18.3117 80.2827 18.323C79.852 18.2777 79.5064 18.1587 79.2457 17.966C78.9964 17.762 78.8094 17.524 78.6847 17.252C78.56 16.98 78.4864 16.691 78.4637 16.385C78.4524 16.0677 78.4637 15.773 78.4977 15.501C78.543 15.2517 78.594 15.0477 78.6507 14.889C78.764 14.4697 78.951 14.0107 79.2117 13.512C79.4724 13.0133 79.784 12.5147 80.1467 12.016C80.5094 11.5173 80.906 11.0357 81.3367 10.571C81.7787 10.1063 82.2434 9.69267 82.7307 9.33C83.218 8.96733 83.711 8.67833 84.2097 8.463C84.7197 8.24767 85.224 8.14 85.7227 8.14C85.87 8.14 86.0117 8.15133 86.1477 8.174C86.2837 8.19667 86.431 8.23067 86.5897 8.276C86.8617 8.36667 87.0657 8.514 87.2017 8.718C87.349 8.91067 87.4454 9.143 87.4907 9.415C87.5474 9.67567 87.5644 9.959 87.5417 10.265C87.5304 10.5597 87.4907 10.8543 87.4227 11.149ZM85.4337 11.149C85.547 11.0923 85.6774 11.081 85.8247 11.115C85.9834 11.149 86.142 11.2113 86.3007 11.302C86.244 11.2453 86.227 11.183 86.2497 11.115C86.261 11.081 86.261 11.0413 86.2497 10.996C86.2497 10.9507 86.2554 10.9053 86.2667 10.86C86.278 10.7467 86.2837 10.6277 86.2837 10.503C86.2837 10.3783 86.2667 10.265 86.2327 10.163C86.1987 10.0497 86.142 9.959 86.0627 9.891C85.9834 9.823 85.8757 9.78333 85.7397 9.772C85.3204 9.76067 84.8897 9.91367 84.4477 10.231C84.0057 10.537 83.5807 10.928 83.1727 11.404C82.7647 11.88 82.3907 12.39 82.0507 12.934C81.722 13.478 81.4614 13.971 81.2687 14.413C81.212 14.5377 81.1554 14.6963 81.0987 14.889C81.042 15.0703 81.0024 15.2517 80.9797 15.433C80.957 15.5577 80.9457 15.6767 80.9457 15.79C80.9457 15.9033 80.9684 15.9997 81.0137 16.079C81.0704 16.1583 81.1497 16.2093 81.2517 16.232C81.3537 16.2547 81.4954 16.2433 81.6767 16.198C81.8467 16.1527 82.062 16.0223 82.3227 15.807C82.5834 15.5917 82.8554 15.3423 83.1387 15.059C83.4334 14.7643 83.7167 14.4527 83.9887 14.124C84.272 13.7953 84.51 13.5007 84.7027 13.24C84.8727 12.9 85.0257 12.5713 85.1617 12.254C85.309 11.9253 85.411 11.6477 85.4677 11.421L85.4337 11.149Z" fill="white"/>
</svg>
